# xmcd
#
# Track frame offsets:
#	150
#	16278
#	30765
#	47248
#	62198
#	76450
#	92608
#	107538
#	122075
#	139690
#	154375
#	170000
#	187075
#	200750
#
# Disc length: 2893 seconds
#
# Revision: 0
# Processed by: cddbd v1.4b41PL3 Copyright (c) Steve Scherf et al.
# Submitted via: audiograbber 1.80
#
DISCID=bd0b4b0e
DTITLE=Flippers - Unsere Lieder
DYEAR=1900
DGENRE=
TTITLE0=Ein Herz auf Reisen
TTITLE1=Hab Ich Dich Verloren
TTITLE2=Bleib Mir Treu, Ich Komm Wieder
TTITLE3=Mama Lucia
TTITLE4=Ein Traum Fliegt Zu Dir
TTITLE5=Wellen, Wind Und Schöne Mädchen
TTITLE6=Sag Einfach Ich Liebe Dich
TTITLE7=Lass Mein Herz Nie Mehr Weinen
TTITLE8=Heut Ist Die Nacht Der Tausend Rosen
TTITLE9=Sommer, Sonne, Zärtlichkeit
TTITLE10=Rosen Der Liebe
TTITLE11=Sehnsucht Nach Dir
TTITLE12=Ich bin So Allein
TTITLE13=Schöne Jahre
EXTD=
EXTT0=
EXTT1=
EXTT2=
EXTT3=
EXTT4=
EXTT5=
EXTT6=
EXTT7=
EXTT8=
EXTT9=
EXTT10=
EXTT11=
EXTT12=
EXTT13=
PLAYORDER=
